<svg xmlns="http://www.w3.org/2000/svg" xmlns:xlink="http://www.w3.org/1999/xlink" width="800" height="477.62"><rect width="800" height="477.62" rx="0" ry="0" class="a"/><svg height="477.62" viewBox="0 0 80 47.762" width="800" xmlns="http://www.w3.org/2000/svg" xmlns:xlink="http://www.w3.org/1999/xlink"><style>@keyframes n{0%{transform:translateX(0)}3.94%{transform:translateX(-80px)}5.24%{transform:translateX(-160px)}8.87%{transform:translateX(-240px)}10.24%{transform:translateX(-320px)}10.26%{transform:translateX(-400px)}19.28%{transform:translateX(-480px)}20.12%{transform:translateX(-560px)}21.22%{transform:translateX(-640px)}21.51%{transform:translateX(-720px)}22.84%{transform:translateX(-800px)}22.86%{transform:translateX(-880px)}22.96%{transform:translateX(-960px)}22.99%{transform:translateX(-1040px)}28.95%{transform:translateX(-1120px)}32.6%{transform:translateX(-1200px)}32.63%{transform:translateX(-1280px)}32.74%{transform:translateX(-1360px)}32.76%{transform:translateX(-1440px)}35.73%{transform:translateX(-1520px)}35.75%{transform:translateX(-1600px)}35.84%{transform:translateX(-1680px)}35.86%{transform:translateX(-1760px)}42.52%{transform:translateX(-1840px)}42.55%{transform:translateX(-1920px)}42.66%{transform:translateX(-2000px)}42.68%{transform:translateX(-2080px)}45.42%{transform:translateX(-2160px)}45.44%{transform:translateX(-2240px)}45.56%{transform:translateX(-2320px)}45.58%{transform:translateX(-2400px)}47.52%{transform:translateX(-2480px)}47.55%{transform:translateX(-2560px)}47.65%{transform:translateX(-2640px)}47.67%{transform:translateX(-2720px)}49.6%{transform:translateX(-2800px)}49.62%{transform:translateX(-2880px)}49.73%{transform:translateX(-2960px)}49.75%{transform:translateX(-3040px)}52%{transform:translateX(-3120px)}52.02%{transform:translateX(-3200px)}52.14%{transform:translateX(-3280px)}52.16%{transform:translateX(-3360px)}55.52%{transform:translateX(-3440px)}55.55%{transform:translateX(-3520px)}55.65%{transform:translateX(-3600px)}55.68%{transform:translateX(-3680px)}57.92%{transform:translateX(-3760px)}57.94%{transform:translateX(-3840px)}58.05%{transform:translateX(-3920px)}58.08%{transform:translateX(-4000px)}66.56%{transform:translateX(-4080px)}66.95%{transform:translateX(-4160px)}67.96%{transform:translateX(-4240px)}69.15%{transform:translateX(-4320px)}70.42%{transform:translateX(-4400px)}75.32%{transform:translateX(-4480px)}75.35%{transform:translateX(-4560px)}75.48%{transform:translateX(-4640px)}75.5%{transform:translateX(-4720px)}78.51%{transform:translateX(-4800px)}78.54%{transform:translateX(-4880px)}78.65%{transform:translateX(-4960px)}78.68%{transform:translateX(-5040px)}85.91%{transform:translateX(-5120px)}85.94%{transform:translateX(-5200px)}86.58%{transform:translateX(-5280px)}86.85%{transform:translateX(-5360px)}to{transform:translateX(-5440px)}}.a{fill:#282d35}.c,.d,.e,.f{fill:#a8cc8c;white-space:pre}.d,.e,.f{fill:#dbab79}.e,.f{fill:#b9bfca}.f{fill:#b9c0cb}.g{fill:#a8cc8c;font-weight:700}.g,.h,.i,.j,.k{white-space:pre}.h{fill:#fff;font-weight:700}.i,.j,.k{fill:#71bef2}.j,.k{fill:#b9c0cb;font-weight:700}.k{fill:#66c2cd}</style><g font-family="Monaco,Consolas,Menlo,'Bitstream Vera Sans Mono','Powerline Symbols',monospace" font-size="1.67"><defs><symbol id="1"><text y="1.67" class="c">✔</text><text x="2.004" y="1.67" class="d">/tmp/springcli</text></symbol><symbol id="2"><text y="1.67" class="e">14:09</text><text x="6.012" y="1.67" class="f">$</text><text x="8.016" y="1.67" class="f">spring-cli</text><text x="19.038" y="1.67" class="f">initializr</text><text x="30.06" y="1.67" class="f">new</text></symbol><symbol id="3"><text y="1.67" class="c">ℹ</text><text x="2.004" y="1.67" class="c">Path</text><text x="7.014" y="1.67" class="c">ok</text></symbol><symbol id="4"><text y="1.67" class="g">?</text><text x="2.004" y="1.67" class="h">Path</text><text x="7.014" y="1.67" class="i">demo</text></symbol><symbol id="5"><text y="1.67" class="g">?</text><text x="2.004" y="1.67" class="h">Project</text><text x="10.02" y="1.67" class="f">[Use</text><text x="15.03" y="1.67" class="f">arrows</text><text x="22.044" y="1.67" class="f">to</text><text x="25.05" y="1.67" class="f">move],</text><text x="32.064" y="1.67" class="f">type</text><text x="37.074" y="1.67" class="f">to</text><text x="40.08" y="1.67" class="f">filter</text></symbol><symbol id="6"><text y="1.67" class="g">?</text><text x="2.004" y="1.67" class="h">Project</text><text x="10.02" y="1.67" class="i">gradle-project</text></symbol><symbol id="7"><text y="1.67" class="g">?</text><text x="2.004" y="1.67" class="h">Language</text><text x="11.022" y="1.67" class="i">java</text></symbol><symbol id="8"><text y="1.67" class="g">?</text><text x="2.004" y="1.67" class="h">Spring</text><text x="9.018" y="1.67" class="h">Boot</text><text x="14.028" y="1.67" class="i">2.7.0</text></symbol><symbol id="9"><text y="1.67" class="g">?</text><text x="2.004" y="1.67" class="h">Version</text><text x="10.02" y="1.67" class="i">0.0.1-SNAPSHOT</text></symbol><symbol id="10"><text y="1.67" class="g">?</text><text x="2.004" y="1.67" class="h">Group</text><text x="8.016" y="1.67" class="i">com.example</text></symbol><symbol id="11"><text y="1.67" class="g">?</text><text x="2.004" y="1.67" class="h">Artifact</text><text x="11.022" y="1.67" class="i">demo</text></symbol><symbol id="12"><text y="1.67" class="g">?</text><text x="2.004" y="1.67" class="h">Name</text><text x="7.014" y="1.67" class="i">demo</text></symbol><symbol id="13"><text y="1.67" class="g">?</text><text x="2.004" y="1.67" class="h">Description</text><text x="14.028" y="1.67" class="i">Demo</text><text x="19.038" y="1.67" class="i">project</text><text x="27.054" y="1.67" class="i">for</text><text x="31.062" y="1.67" class="i">Spring</text><text x="38.076" y="1.67" class="i">Boot</text></symbol><symbol id="14"><text y="1.67" class="g">?</text><text x="2.004" y="1.67" class="h">Package</text><text x="10.02" y="1.67" class="h">Name</text><text x="15.03" y="1.67" class="i">com.example.demo</text></symbol><symbol id="15"><text x="2.004" y="1.67" class="j">☐</text><text x="5.01" y="1.67" class="f">Spring</text><text x="12.024" y="1.67" class="f">Reactive</text><text x="21.042" y="1.67" class="f">Web</text></symbol><symbol id="16"><text x="2.004" y="1.67" class="j">☐</text><text x="5.01" y="1.67" class="f">Spring</text><text x="12.024" y="1.67" class="f">Web</text></symbol><symbol id="17"><text x="2.004" y="1.67" class="j">☐</text><text x="5.01" y="1.67" class="f">Spring</text><text x="12.024" y="1.67" class="f">Web</text><text x="16.032" y="1.67" class="f">Services</text></symbol><symbol id="18"><text y="1.67" class="k">❯</text><text x="2.004" y="1.67" class="j">☐</text><text x="5.01" y="1.67" class="f">Spring</text><text x="12.024" y="1.67" class="f">Reactive</text><text x="21.042" y="1.67" class="f">Web</text></symbol><symbol id="19"><text x="2.004" y="1.67" class="j">☐</text><text x="5.01" y="1.67" class="f">WebSocket</text></symbol><symbol id="20"><text y="1.67" class="g">?</text><text x="2.004" y="1.67" class="h">Dependencies</text><text x="15.03" y="1.67" class="f">[Use</text><text x="20.04" y="1.67" class="f">arrows</text><text x="27.054" y="1.67" class="f">to</text><text x="30.06" y="1.67" class="f">move],</text><text x="37.074" y="1.67" class="f">filtering</text><text x="47.094" y="1.67" class="f">&apos;web&apos;</text></symbol><symbol id="21"><text y="1.67" class="g">?</text><text x="2.004" y="1.67" class="h">Dependencies</text><text x="15.03" y="1.67" class="i">web</text></symbol><symbol id="22"><text y="1.67" class="g">?</text><text x="2.004" y="1.67" class="h">Packaging</text><text x="12.024" y="1.67" class="i">jar</text></symbol><symbol id="23"><text y="1.67" class="g">?</text><text x="2.004" y="1.67" class="h">Java</text><text x="7.014" y="1.67" class="i">17</text></symbol><symbol id="24"><text y="1.67" class="f">Extracted</text><text x="10.02" y="1.67" class="f">to</text><text x="13.026" y="1.67" class="f">/tmp/springcli/demo</text></symbol><symbol id="25"><text y="1.67" class="e">14:10</text><text x="6.012" y="1.67" class="f">$</text></symbol><symbol id="a"><path fill="transparent" d="M0 0h80v22H0z"/></symbol><symbol id="b"><path fill="#6f7683" d="M0 0h1.102v2.171H0z"/></symbol></defs><path class="a" d="M0 0h80v47.762H0z"/><g style="animation-duration:30.418217s;animation-iteration-count:infinite;animation-name:n;animation-timing-function:steps(1,end)"><svg width="5520"><svg><use xlink:href="#a"/><use xlink:href="#b" x="-.004"/></svg><svg x="80"><use xlink:href="#a"/><use xlink:href="#b" x="7.996" y="2.146"/><use xlink:href="#1"/><text y="3.841" class="e">14:09</text><text x="6.012" y="3.841" class="f">$</text></svg><svg x="160"><use xlink:href="#a"/><use xlink:href="#b" x="32.996" y="2.146"/><use xlink:href="#1"/><use xlink:href="#2" y="2.171"/></svg><svg x="240"><use xlink:href="#a"/><use xlink:href="#b" x="-.004" y="4.317"/><use xlink:href="#1"/><use xlink:href="#2" y="2.171"/></svg><svg x="320"><use xlink:href="#a"/><use xlink:href="#1"/><use xlink:href="#2" y="2.171"/></svg><svg x="400"><use xlink:href="#a"/><use xlink:href="#1"/><use xlink:href="#2" y="2.171"/><text y="6.012" class="g">?</text><text x="2.004" y="6.012" class="h">Path</text></svg><svg x="480"><use xlink:href="#a"/><use xlink:href="#1"/><use xlink:href="#2" y="2.171"/><text y="6.012" class="g">?</text><text x="2.004" y="6.012" class="h">Path</text><text x="7.014" y="6.012" class="f">d</text><use xlink:href="#3" y="6.513"/></svg><svg x="560"><use xlink:href="#a"/><use xlink:href="#1"/><use xlink:href="#2" y="2.171"/><text y="6.012" class="g">?</text><text x="2.004" y="6.012" class="h">Path</text><text x="7.014" y="6.012" class="f">de</text><use xlink:href="#3" y="6.513"/></svg><svg x="640"><use xlink:href="#a"/><use xlink:href="#1"/><use xlink:href="#2" y="2.171"/><text y="6.012" class="g">?</text><text x="2.004" y="6.012" class="h">Path</text><text x="7.014" y="6.012" class="f">dem</text><use xlink:href="#3" y="6.513"/></svg><svg x="720"><use xlink:href="#a"/><use xlink:href="#1"/><use xlink:href="#2" y="2.171"/><text y="6.012" class="g">?</text><text x="2.004" y="6.012" class="h">Path</text><text x="7.014" y="6.012" class="f">demo</text><use xlink:href="#3" y="6.513"/></svg><svg x="800"><use xlink:href="#a"/><use xlink:href="#b" x="-.004" y="4.317"/><use xlink:href="#1"/><use xlink:href="#2" y="2.171"/></svg><svg x="880"><use xlink:href="#a"/><use xlink:href="#b" x="-.004" y="6.488"/><use xlink:href="#1"/><use xlink:href="#2" y="2.171"/><use xlink:href="#4" y="4.342"/></svg><svg x="960"><use xlink:href="#a"/><use xlink:href="#1"/><use xlink:href="#2" y="2.171"/><use xlink:href="#4" y="4.342"/></svg><svg x="1040"><use xlink:href="#a"/><use xlink:href="#1"/><use xlink:href="#2" y="2.171"/><use xlink:href="#4" y="4.342"/><use xlink:href="#5" y="6.513"/><text x="2.004" y="10.354" class="f">Gradle</text><text x="9.018" y="10.354" class="f">Project</text><text y="12.525" class="k">❯</text><text x="2.004" y="12.525" class="k">Maven</text><text x="8.016" y="12.525" class="k">Project</text></svg><svg x="1120"><use xlink:href="#a"/><use xlink:href="#1"/><use xlink:href="#2" y="2.171"/><use xlink:href="#4" y="4.342"/><use xlink:href="#5" y="6.513"/><text y="10.354" class="k">❯</text><text x="2.004" y="10.354" class="k">Gradle</text><text x="9.018" y="10.354" class="k">Project</text><text x="2.004" y="12.525" class="f">Maven</text><text x="8.016" y="12.525" class="f">Project</text></svg><svg x="1200"><use xlink:href="#a"/><use xlink:href="#b" x="-.004" y="6.488"/><use xlink:href="#1"/><use xlink:href="#2" y="2.171"/><use xlink:href="#4" y="4.342"/></svg><svg x="1280"><use xlink:href="#a"/><use xlink:href="#b" x="-.004" y="8.659"/><use xlink:href="#1"/><use xlink:href="#2" y="2.171"/><use xlink:href="#4" y="4.342"/><use xlink:href="#6" y="6.513"/></svg><svg x="1360"><use xlink:href="#a"/><use xlink:href="#1"/><use xlink:href="#2" y="2.171"/><use xlink:href="#4" y="4.342"/><use xlink:href="#6" y="6.513"/></svg><svg x="1440"><use xlink:href="#a"/><use xlink:href="#1"/><use xlink:href="#2" y="2.171"/><use xlink:href="#4" y="4.342"/><use xlink:href="#6" y="6.513"/><text y="10.354" class="g">?</text><text x="2.004" y="10.354" class="h">Language</text><text x="11.022" y="10.354" class="f">[Use</text><text x="16.032" y="10.354" class="f">arrows</text><text x="23.046" y="10.354" class="f">to</text><text x="26.052" y="10.354" class="f">move],</text><text x="33.066" y="10.354" class="f">type</text><text x="38.076" y="10.354" class="f">to</text><text x="41.082" y="10.354" class="f">filter</text><text x="2.004" y="12.525" class="f">Groovy</text><text y="14.696" class="k">❯</text><text x="2.004" y="14.696" class="k">Java</text><text x="2.004" y="16.867" class="f">Kotlin</text></svg><svg x="1520"><use xlink:href="#a"/><use xlink:href="#b" x="-.004" y="8.659"/><use xlink:href="#1"/><use xlink:href="#2" y="2.171"/><use xlink:href="#4" y="4.342"/><use xlink:href="#6" y="6.513"/></svg><svg x="1600"><use xlink:href="#a"/><use xlink:href="#b" x="-.004" y="10.83"/><use xlink:href="#1"/><use xlink:href="#2" y="2.171"/><use xlink:href="#4" y="4.342"/><use xlink:href="#6" y="6.513"/><use xlink:href="#7" y="8.684"/></svg><svg x="1680"><use xlink:href="#a"/><use xlink:href="#1"/><use xlink:href="#2" y="2.171"/><use xlink:href="#4" y="4.342"/><use xlink:href="#6" y="6.513"/><use xlink:href="#7" y="8.684"/></svg><svg x="1760"><use xlink:href="#a"/><use xlink:href="#1"/><use xlink:href="#2" y="2.171"/><use xlink:href="#4" y="4.342"/><use xlink:href="#6" y="6.513"/><use xlink:href="#7" y="8.684"/><text y="12.525" class="g">?</text><text x="2.004" y="12.525" class="h">Spring</text><text x="9.018" y="12.525" class="h">Boot</text><text x="14.028" y="12.525" class="f">[Use</text><text x="19.038" y="12.525" class="f">arrows</text><text x="26.052" y="12.525" class="f">to</text><text x="29.058" y="12.525" class="f">move],</text><text x="36.072" y="12.525" class="f">type</text><text x="41.082" y="12.525" class="f">to</text><text x="44.088" y="12.525" class="f">filter</text><text x="2.004" y="14.696" class="f">3.0.0</text><text x="8.016" y="14.696" class="f">(SNAPSHOT)</text><text x="2.004" y="16.867" class="f">3.0.0</text><text x="8.016" y="16.867" class="f">(M3)</text><text x="2.004" y="19.038" class="f">2.7.1</text><text x="8.016" y="19.038" class="f">(SNAPSHOT)</text><text y="21.209" class="k">❯</text><text x="2.004" y="21.209" class="k">2.7.0</text><text x="2.004" y="23.38" class="f">2.6.9</text><text x="8.016" y="23.38" class="f">(SNAPSHOT)</text></svg><svg x="1840"><use xlink:href="#a"/><use xlink:href="#b" x="-.004" y="10.83"/><use xlink:href="#1"/><use xlink:href="#2" y="2.171"/><use xlink:href="#4" y="4.342"/><use xlink:href="#6" y="6.513"/><use xlink:href="#7" y="8.684"/></svg><svg x="1920"><use xlink:href="#a"/><use xlink:href="#b" x="-.004" y="13.001"/><use xlink:href="#1"/><use xlink:href="#2" y="2.171"/><use xlink:href="#4" y="4.342"/><use xlink:href="#6" y="6.513"/><use xlink:href="#7" y="8.684"/><use xlink:href="#8" y="10.855"/></svg><svg x="2000"><use xlink:href="#a"/><use xlink:href="#1"/><use xlink:href="#2" y="2.171"/><use xlink:href="#4" y="4.342"/><use xlink:href="#6" y="6.513"/><use xlink:href="#7" y="8.684"/><use xlink:href="#8" y="10.855"/></svg><svg x="2080"><use xlink:href="#a"/><use xlink:href="#1"/><use xlink:href="#2" y="2.171"/><use xlink:href="#4" y="4.342"/><use xlink:href="#6" y="6.513"/><use xlink:href="#7" y="8.684"/><use xlink:href="#8" y="10.855"/><text y="14.696" class="g">?</text><text x="2.004" y="14.696" class="h">Version</text><text x="10.02" y="14.696" class="i">[Default</text><text x="19.038" y="14.696" class="i">0.0.1-SNAPSHOT]</text></svg><svg x="2160"><use xlink:href="#a"/><use xlink:href="#b" x="-.004" y="13.001"/><use xlink:href="#1"/><use xlink:href="#2" y="2.171"/><use xlink:href="#4" y="4.342"/><use xlink:href="#6" y="6.513"/><use xlink:href="#7" y="8.684"/><use xlink:href="#8" y="10.855"/></svg><svg x="2240"><use xlink:href="#a"/><use xlink:href="#b" x="-.004" y="15.172"/><use xlink:href="#1"/><use xlink:href="#2" y="2.171"/><use xlink:href="#4" y="4.342"/><use xlink:href="#6" y="6.513"/><use xlink:href="#7" y="8.684"/><use xlink:href="#8" y="10.855"/><use xlink:href="#9" y="13.026"/></svg><svg x="2320"><use xlink:href="#a"/><use xlink:href="#1"/><use xlink:href="#2" y="2.171"/><use xlink:href="#4" y="4.342"/><use xlink:href="#6" y="6.513"/><use xlink:href="#7" y="8.684"/><use xlink:href="#8" y="10.855"/><use xlink:href="#9" y="13.026"/></svg><svg x="2400"><use xlink:href="#a"/><use xlink:href="#1"/><use xlink:href="#2" y="2.171"/><use xlink:href="#4" y="4.342"/><use xlink:href="#6" y="6.513"/><use xlink:href="#7" y="8.684"/><use xlink:href="#8" y="10.855"/><use xlink:href="#9" y="13.026"/><text y="16.867" class="g">?</text><text x="2.004" y="16.867" class="h">Group</text><text x="8.016" y="16.867" class="i">[Default</text><text x="17.034" y="16.867" class="i">com.example]</text></svg><svg x="2480"><use xlink:href="#a"/><use xlink:href="#b" x="-.004" y="15.172"/><use xlink:href="#1"/><use xlink:href="#2" y="2.171"/><use xlink:href="#4" y="4.342"/><use xlink:href="#6" y="6.513"/><use xlink:href="#7" y="8.684"/><use xlink:href="#8" y="10.855"/><use xlink:href="#9" y="13.026"/></svg><svg x="2560"><use xlink:href="#a"/><use xlink:href="#b" x="-.004" y="17.343"/><use xlink:href="#1"/><use xlink:href="#2" y="2.171"/><use xlink:href="#4" y="4.342"/><use xlink:href="#6" y="6.513"/><use xlink:href="#7" y="8.684"/><use xlink:href="#8" y="10.855"/><use xlink:href="#9" y="13.026"/><use xlink:href="#10" y="15.197"/></svg><svg x="2640"><use xlink:href="#a"/><use xlink:href="#1"/><use xlink:href="#2" y="2.171"/><use xlink:href="#4" y="4.342"/><use xlink:href="#6" y="6.513"/><use xlink:href="#7" y="8.684"/><use xlink:href="#8" y="10.855"/><use xlink:href="#9" y="13.026"/><use xlink:href="#10" y="15.197"/></svg><svg x="2720"><use xlink:href="#a"/><use xlink:href="#1"/><use xlink:href="#2" y="2.171"/><use xlink:href="#4" y="4.342"/><use xlink:href="#6" y="6.513"/><use xlink:href="#7" y="8.684"/><use xlink:href="#8" y="10.855"/><use xlink:href="#9" y="13.026"/><use xlink:href="#10" y="15.197"/><text y="19.038" class="g">?</text><text x="2.004" y="19.038" class="h">Artifact</text><text x="11.022" y="19.038" class="i">[Default</text><text x="20.04" y="19.038" class="i">demo]</text></svg><svg x="2800"><use xlink:href="#a"/><use xlink:href="#b" x="-.004" y="17.343"/><use xlink:href="#1"/><use xlink:href="#2" y="2.171"/><use xlink:href="#4" y="4.342"/><use xlink:href="#6" y="6.513"/><use xlink:href="#7" y="8.684"/><use xlink:href="#8" y="10.855"/><use xlink:href="#9" y="13.026"/><use xlink:href="#10" y="15.197"/></svg><svg x="2880"><use xlink:href="#a"/><use xlink:href="#b" x="-.004" y="19.514"/><use xlink:href="#1"/><use xlink:href="#2" y="2.171"/><use xlink:href="#4" y="4.342"/><use xlink:href="#6" y="6.513"/><use xlink:href="#7" y="8.684"/><use xlink:href="#8" y="10.855"/><use xlink:href="#9" y="13.026"/><use xlink:href="#10" y="15.197"/><use xlink:href="#11" y="17.368"/></svg><svg x="2960"><use xlink:href="#a"/><use xlink:href="#1"/><use xlink:href="#2" y="2.171"/><use xlink:href="#4" y="4.342"/><use xlink:href="#6" y="6.513"/><use xlink:href="#7" y="8.684"/><use xlink:href="#8" y="10.855"/><use xlink:href="#9" y="13.026"/><use xlink:href="#10" y="15.197"/><use xlink:href="#11" y="17.368"/></svg><svg x="3040"><use xlink:href="#a"/><use xlink:href="#1"/><use xlink:href="#2" y="2.171"/><use xlink:href="#4" y="4.342"/><use xlink:href="#6" y="6.513"/><use xlink:href="#7" y="8.684"/><use xlink:href="#8" y="10.855"/><use xlink:href="#9" y="13.026"/><use xlink:href="#10" y="15.197"/><use xlink:href="#11" y="17.368"/><text y="21.209" class="g">?</text><text x="2.004" y="21.209" class="h">Name</text><text x="7.014" y="21.209" class="i">[Default</text><text x="16.032" y="21.209" class="i">demo]</text></svg><svg x="3120"><use xlink:href="#a"/><use xlink:href="#b" x="-.004" y="19.514"/><use xlink:href="#1"/><use xlink:href="#2" y="2.171"/><use xlink:href="#4" y="4.342"/><use xlink:href="#6" y="6.513"/><use xlink:href="#7" y="8.684"/><use xlink:href="#8" y="10.855"/><use xlink:href="#9" y="13.026"/><use xlink:href="#10" y="15.197"/><use xlink:href="#11" y="17.368"/></svg><svg x="3200"><use xlink:href="#a"/><use xlink:href="#b" x="-.004" y="21.685"/><use xlink:href="#1"/><use xlink:href="#2" y="2.171"/><use xlink:href="#4" y="4.342"/><use xlink:href="#6" y="6.513"/><use xlink:href="#7" y="8.684"/><use xlink:href="#8" y="10.855"/><use xlink:href="#9" y="13.026"/><use xlink:href="#10" y="15.197"/><use xlink:href="#11" y="17.368"/><use xlink:href="#12" y="19.539"/></svg><svg x="3280"><use xlink:href="#a"/><use xlink:href="#1"/><use xlink:href="#2" y="2.171"/><use xlink:href="#4" y="4.342"/><use xlink:href="#6" y="6.513"/><use xlink:href="#7" y="8.684"/><use xlink:href="#8" y="10.855"/><use xlink:href="#9" y="13.026"/><use xlink:href="#10" y="15.197"/><use xlink:href="#11" y="17.368"/><use xlink:href="#12" y="19.539"/></svg><svg x="3360"><use xlink:href="#a"/><use xlink:href="#1"/><use xlink:href="#2" y="2.171"/><use xlink:href="#4" y="4.342"/><use xlink:href="#6" y="6.513"/><use xlink:href="#7" y="8.684"/><use xlink:href="#8" y="10.855"/><use xlink:href="#9" y="13.026"/><use xlink:href="#10" y="15.197"/><use xlink:href="#11" y="17.368"/><use xlink:href="#12" y="19.539"/><text y="23.38" class="g">?</text><text x="2.004" y="23.38" class="h">Description</text><text x="14.028" y="23.38" class="i">[Default</text><text x="23.046" y="23.38" class="i">Demo</text><text x="28.056" y="23.38" class="i">project</text><text x="36.072" y="23.38" class="i">for</text><text x="40.08" y="23.38" class="i">Spring</text><text x="47.094" y="23.38" class="i">Boot]</text></svg><svg x="3440"><use xlink:href="#a"/><use xlink:href="#b" x="-.004" y="21.685"/><use xlink:href="#1"/><use xlink:href="#2" y="2.171"/><use xlink:href="#4" y="4.342"/><use xlink:href="#6" y="6.513"/><use xlink:href="#7" y="8.684"/><use xlink:href="#8" y="10.855"/><use xlink:href="#9" y="13.026"/><use xlink:href="#10" y="15.197"/><use xlink:href="#11" y="17.368"/><use xlink:href="#12" y="19.539"/></svg><svg x="3520"><use xlink:href="#a"/><use xlink:href="#b" x="-.004" y="23.856"/><use xlink:href="#1"/><use xlink:href="#2" y="2.171"/><use xlink:href="#4" y="4.342"/><use xlink:href="#6" y="6.513"/><use xlink:href="#7" y="8.684"/><use xlink:href="#8" y="10.855"/><use xlink:href="#9" y="13.026"/><use xlink:href="#10" y="15.197"/><use xlink:href="#11" y="17.368"/><use xlink:href="#12" y="19.539"/><use xlink:href="#13" y="21.71"/></svg><svg x="3600"><use xlink:href="#a"/><use xlink:href="#1"/><use xlink:href="#2" y="2.171"/><use xlink:href="#4" y="4.342"/><use xlink:href="#6" y="6.513"/><use xlink:href="#7" y="8.684"/><use xlink:href="#8" y="10.855"/><use xlink:href="#9" y="13.026"/><use xlink:href="#10" y="15.197"/><use xlink:href="#11" y="17.368"/><use xlink:href="#12" y="19.539"/><use xlink:href="#13" y="21.71"/></svg><svg x="3680"><use xlink:href="#a"/><use xlink:href="#1"/><use xlink:href="#2" y="2.171"/><use xlink:href="#4" y="4.342"/><use xlink:href="#6" y="6.513"/><use xlink:href="#7" y="8.684"/><use xlink:href="#8" y="10.855"/><use xlink:href="#9" y="13.026"/><use xlink:href="#10" y="15.197"/><use xlink:href="#11" y="17.368"/><use xlink:href="#12" y="19.539"/><use xlink:href="#13" y="21.71"/><text y="25.551" class="g">?</text><text x="2.004" y="25.551" class="h">Package</text><text x="10.02" y="25.551" class="h">Name</text><text x="15.03" y="25.551" class="i">[Default</text><text x="24.048" y="25.551" class="i">com.example.demo]</text></svg><svg x="3760"><use xlink:href="#a"/><use xlink:href="#b" x="-.004" y="23.856"/><use xlink:href="#1"/><use xlink:href="#2" y="2.171"/><use xlink:href="#4" y="4.342"/><use xlink:href="#6" y="6.513"/><use xlink:href="#7" y="8.684"/><use xlink:href="#8" y="10.855"/><use xlink:href="#9" y="13.026"/><use xlink:href="#10" y="15.197"/><use xlink:href="#11" y="17.368"/><use xlink:href="#12" y="19.539"/><use xlink:href="#13" y="21.71"/></svg><svg x="3840"><use xlink:href="#a"/><use xlink:href="#b" x="-.004" y="26.027"/><use xlink:href="#1"/><use xlink:href="#2" y="2.171"/><use xlink:href="#4" y="4.342"/><use xlink:href="#6" y="6.513"/><use xlink:href="#7" y="8.684"/><use xlink:href="#8" y="10.855"/><use xlink:href="#9" y="13.026"/><use xlink:href="#10" y="15.197"/><use xlink:href="#11" y="17.368"/><use xlink:href="#12" y="19.539"/><use xlink:href="#13" y="21.71"/><use xlink:href="#14" y="23.881"/></svg><svg x="3920"><use xlink:href="#a"/><use xlink:href="#1"/><use xlink:href="#2" y="2.171"/><use xlink:href="#4" y="4.342"/><use xlink:href="#6" y="6.513"/><use xlink:href="#7" y="8.684"/><use xlink:href="#8" y="10.855"/><use xlink:href="#9" y="13.026"/><use xlink:href="#10" y="15.197"/><use xlink:href="#11" y="17.368"/><use xlink:href="#12" y="19.539"/><use xlink:href="#13" y="21.71"/><use xlink:href="#14" y="23.881"/></svg><svg x="4000"><use xlink:href="#a"/><use xlink:href="#1"/><use xlink:href="#2" y="2.171"/><use xlink:href="#4" y="4.342"/><use xlink:href="#6" y="6.513"/><use xlink:href="#7" y="8.684"/><use xlink:href="#8" y="10.855"/><use xlink:href="#9" y="13.026"/><use xlink:href="#10" y="15.197"/><use xlink:href="#11" y="17.368"/><use xlink:href="#12" y="19.539"/><use xlink:href="#13" y="21.71"/><use xlink:href="#14" y="23.881"/><text y="27.722" class="g">?</text><text x="2.004" y="27.722" class="h">Dependencies</text><text x="15.03" y="27.722" class="f">[Use</text><text x="20.04" y="27.722" class="f">arrows</text><text x="27.054" y="27.722" class="f">to</text><text x="30.06" y="27.722" class="f">move],</text><text x="37.074" y="27.722" class="f">type</text><text x="42.084" y="27.722" class="f">to</text><text x="45.09" y="27.722" class="f">filter</text><text y="29.893" class="k">❯</text><text x="2.004" y="29.893" class="f">☐</text><text x="5.01" y="29.893" class="f">Apache</text><text x="12.024" y="29.893" class="f">Camel</text><text x="2.004" y="32.064" class="j">☐</text><text x="5.01" y="32.064" class="f">Apache</text><text x="12.024" y="32.064" class="f">Derby</text><text x="18.036" y="32.064" class="f">Database</text><text x="2.004" y="34.235" class="j">☐</text><text x="5.01" y="34.235" class="f">Apache</text><text x="12.024" y="34.235" class="f">Freemarker</text><text x="2.004" y="36.406" class="j">☐</text><text x="5.01" y="36.406" class="f">Apache</text><text x="12.024" y="36.406" class="f">Zookeeper</text><text x="22.044" y="36.406" class="f">Configuration</text><text x="2.004" y="38.577" class="j">☐</text><text x="5.01" y="38.577" class="f">Apache</text><text x="12.024" y="38.577" class="f">Zookeeper</text><text x="22.044" y="38.577" class="f">Discovery</text><text x="2.004" y="40.748" class="j">☐</text><text x="5.01" y="40.748" class="f">Azure</text><text x="11.022" y="40.748" class="f">Active</text><text x="18.036" y="40.748" class="f">Directory</text><text x="2.004" y="42.919" class="j">☐</text><text x="5.01" y="42.919" class="f">Azure</text><text x="11.022" y="42.919" class="f">Cosmos</text><text x="18.036" y="42.919" class="f">DB</text></svg><svg x="4080"><use xlink:href="#a"/><use xlink:href="#1"/><use xlink:href="#2" y="2.171"/><use xlink:href="#4" y="4.342"/><use xlink:href="#6" y="6.513"/><use xlink:href="#7" y="8.684"/><use xlink:href="#8" y="10.855"/><use xlink:href="#9" y="13.026"/><use xlink:href="#10" y="15.197"/><use xlink:href="#11" y="17.368"/><use xlink:href="#12" y="19.539"/><use xlink:href="#13" y="21.71"/><use xlink:href="#14" y="23.881"/><text y="27.722" class="g">?</text><text x="2.004" y="27.722" class="h">Dependencies</text><text x="15.03" y="27.722" class="f">[Use</text><text x="20.04" y="27.722" class="f">arrows</text><text x="27.054" y="27.722" class="f">to</text><text x="30.06" y="27.722" class="f">move],</text><text x="37.074" y="27.722" class="f">filtering</text><text x="47.094" y="27.722" class="f">&apos;w&apos;</text><text y="29.893" class="k">❯</text><text x="2.004" y="29.893" class="j">☐</text><text x="5.01" y="29.893" class="f">Flyway</text><text x="12.024" y="29.893" class="f">Migration</text><text x="2.004" y="32.064" class="j">☐</text><text x="5.01" y="32.064" class="f">Gateway</text><text x="2.004" y="34.235" class="j">☐</text><text x="5.01" y="34.235" class="f">MyBatis</text><text x="13.026" y="34.235" class="f">Framework</text><text x="2.004" y="36.406" class="j">☐</text><text x="5.01" y="36.406" class="f">New</text><text x="9.018" y="36.406" class="f">Relic</text><use xlink:href="#15" y="36.907"/><use xlink:href="#16" y="39.078"/><use xlink:href="#17" y="41.249"/></svg><svg x="4160"><use xlink:href="#a"/><use xlink:href="#1"/><use xlink:href="#2" y="2.171"/><use xlink:href="#4" y="4.342"/><use xlink:href="#6" y="6.513"/><use xlink:href="#7" y="8.684"/><use xlink:href="#8" y="10.855"/><use xlink:href="#9" y="13.026"/><use xlink:href="#10" y="15.197"/><use xlink:href="#11" y="17.368"/><use xlink:href="#12" y="19.539"/><use xlink:href="#13" y="21.71"/><use xlink:href="#14" y="23.881"/><text y="27.722" class="g">?</text><text x="2.004" y="27.722" class="h">Dependencies</text><text x="15.03" y="27.722" class="f">[Use</text><text x="20.04" y="27.722" class="f">arrows</text><text x="27.054" y="27.722" class="f">to</text><text x="30.06" y="27.722" class="f">move],</text><text x="37.074" y="27.722" class="f">filtering</text><text x="47.094" y="27.722" class="f">&apos;we&apos;</text><use xlink:href="#18" y="28.223"/><use xlink:href="#16" y="30.394"/><use xlink:href="#17" y="32.565"/><use xlink:href="#19" y="34.736"/></svg><svg x="4240"><use xlink:href="#a"/><use xlink:href="#1"/><use xlink:href="#2" y="2.171"/><use xlink:href="#4" y="4.342"/><use xlink:href="#6" y="6.513"/><use xlink:href="#7" y="8.684"/><use xlink:href="#8" y="10.855"/><use xlink:href="#9" y="13.026"/><use xlink:href="#10" y="15.197"/><use xlink:href="#11" y="17.368"/><use xlink:href="#12" y="19.539"/><use xlink:href="#13" y="21.71"/><use xlink:href="#14" y="23.881"/><use xlink:href="#20" y="26.052"/><use xlink:href="#18" y="28.223"/><use xlink:href="#16" y="30.394"/><use xlink:href="#17" y="32.565"/><use xlink:href="#19" y="34.736"/></svg><svg x="4320"><use xlink:href="#a"/><use xlink:href="#1"/><use xlink:href="#2" y="2.171"/><use xlink:href="#4" y="4.342"/><use xlink:href="#6" y="6.513"/><use xlink:href="#7" y="8.684"/><use xlink:href="#8" y="10.855"/><use xlink:href="#9" y="13.026"/><use xlink:href="#10" y="15.197"/><use xlink:href="#11" y="17.368"/><use xlink:href="#12" y="19.539"/><use xlink:href="#13" y="21.71"/><use xlink:href="#14" y="23.881"/><use xlink:href="#20" y="26.052"/><use xlink:href="#15" y="28.223"/><text y="32.064" class="k">❯</text><text x="2.004" y="32.064" class="j">☐</text><text x="5.01" y="32.064" class="f">Spring</text><text x="12.024" y="32.064" class="f">Web</text><use xlink:href="#17" y="32.565"/><use xlink:href="#19" y="34.736"/></svg><svg x="4400"><use xlink:href="#a"/><use xlink:href="#1"/><use xlink:href="#2" y="2.171"/><use xlink:href="#4" y="4.342"/><use xlink:href="#6" y="6.513"/><use xlink:href="#7" y="8.684"/><use xlink:href="#8" y="10.855"/><use xlink:href="#9" y="13.026"/><use xlink:href="#10" y="15.197"/><use xlink:href="#11" y="17.368"/><use xlink:href="#12" y="19.539"/><use xlink:href="#13" y="21.71"/><use xlink:href="#14" y="23.881"/><use xlink:href="#20" y="26.052"/><use xlink:href="#15" y="28.223"/><text y="32.064" class="k">❯</text><text x="2.004" y="32.064" class="c">☒</text><text x="5.01" y="32.064" class="f">Spring</text><text x="12.024" y="32.064" class="f">Web</text><use xlink:href="#17" y="32.565"/><use xlink:href="#19" y="34.736"/></svg><svg x="4480"><use xlink:href="#a"/><use xlink:href="#b" x="-.004" y="26.027"/><use xlink:href="#1"/><use xlink:href="#2" y="2.171"/><use xlink:href="#4" y="4.342"/><use xlink:href="#6" y="6.513"/><use xlink:href="#7" y="8.684"/><use xlink:href="#8" y="10.855"/><use xlink:href="#9" y="13.026"/><use xlink:href="#10" y="15.197"/><use xlink:href="#11" y="17.368"/><use xlink:href="#12" y="19.539"/><use xlink:href="#13" y="21.71"/><use xlink:href="#14" y="23.881"/></svg><svg x="4560"><use xlink:href="#a"/><use xlink:href="#b" x="-.004" y="28.198"/><use xlink:href="#1"/><use xlink:href="#2" y="2.171"/><use xlink:href="#4" y="4.342"/><use xlink:href="#6" y="6.513"/><use xlink:href="#7" y="8.684"/><use xlink:href="#8" y="10.855"/><use xlink:href="#9" y="13.026"/><use xlink:href="#10" y="15.197"/><use xlink:href="#11" y="17.368"/><use xlink:href="#12" y="19.539"/><use xlink:href="#13" y="21.71"/><use xlink:href="#14" y="23.881"/><use xlink:href="#21" y="26.052"/></svg><svg x="4640"><use xlink:href="#a"/><use xlink:href="#1"/><use xlink:href="#2" y="2.171"/><use xlink:href="#4" y="4.342"/><use xlink:href="#6" y="6.513"/><use xlink:href="#7" y="8.684"/><use xlink:href="#8" y="10.855"/><use xlink:href="#9" y="13.026"/><use xlink:href="#10" y="15.197"/><use xlink:href="#11" y="17.368"/><use xlink:href="#12" y="19.539"/><use xlink:href="#13" y="21.71"/><use xlink:href="#14" y="23.881"/><use xlink:href="#21" y="26.052"/></svg><svg x="4720"><use xlink:href="#a"/><use xlink:href="#1"/><use xlink:href="#2" y="2.171"/><use xlink:href="#4" y="4.342"/><use xlink:href="#6" y="6.513"/><use xlink:href="#7" y="8.684"/><use xlink:href="#8" y="10.855"/><use xlink:href="#9" y="13.026"/><use xlink:href="#10" y="15.197"/><use xlink:href="#11" y="17.368"/><use xlink:href="#12" y="19.539"/><use xlink:href="#13" y="21.71"/><use xlink:href="#14" y="23.881"/><use xlink:href="#21" y="26.052"/><text y="29.893" class="g">?</text><text x="2.004" y="29.893" class="h">Packaging</text><text x="12.024" y="29.893" class="f">[Use</text><text x="17.034" y="29.893" class="f">arrows</text><text x="24.048" y="29.893" class="f">to</text><text x="27.054" y="29.893" class="f">move],</text><text x="34.068" y="29.893" class="f">type</text><text x="39.078" y="29.893" class="f">to</text><text x="42.084" y="29.893" class="f">filter</text><text y="32.064" class="k">❯</text><text x="2.004" y="32.064" class="k">Jar</text><text x="2.004" y="34.235" class="f">War</text></svg><svg x="4800"><use xlink:href="#a"/><use xlink:href="#b" x="-.004" y="28.198"/><use xlink:href="#1"/><use xlink:href="#2" y="2.171"/><use xlink:href="#4" y="4.342"/><use xlink:href="#6" y="6.513"/><use xlink:href="#7" y="8.684"/><use xlink:href="#8" y="10.855"/><use xlink:href="#9" y="13.026"/><use xlink:href="#10" y="15.197"/><use xlink:href="#11" y="17.368"/><use xlink:href="#12" y="19.539"/><use xlink:href="#13" y="21.71"/><use xlink:href="#14" y="23.881"/><use xlink:href="#21" y="26.052"/></svg><svg x="4880"><use xlink:href="#a"/><use xlink:href="#b" x="-.004" y="30.369"/><use xlink:href="#1"/><use xlink:href="#2" y="2.171"/><use xlink:href="#4" y="4.342"/><use xlink:href="#6" y="6.513"/><use xlink:href="#7" y="8.684"/><use xlink:href="#8" y="10.855"/><use xlink:href="#9" y="13.026"/><use xlink:href="#10" y="15.197"/><use xlink:href="#11" y="17.368"/><use xlink:href="#12" y="19.539"/><use xlink:href="#13" y="21.71"/><use xlink:href="#14" y="23.881"/><use xlink:href="#21" y="26.052"/><use xlink:href="#22" y="28.223"/></svg><svg x="4960"><use xlink:href="#a"/><use xlink:href="#1"/><use xlink:href="#2" y="2.171"/><use xlink:href="#4" y="4.342"/><use xlink:href="#6" y="6.513"/><use xlink:href="#7" y="8.684"/><use xlink:href="#8" y="10.855"/><use xlink:href="#9" y="13.026"/><use xlink:href="#10" y="15.197"/><use xlink:href="#11" y="17.368"/><use xlink:href="#12" y="19.539"/><use xlink:href="#13" y="21.71"/><use xlink:href="#14" y="23.881"/><use xlink:href="#21" y="26.052"/><use xlink:href="#22" y="28.223"/></svg><svg x="5040"><use xlink:href="#a"/><use xlink:href="#1"/><use xlink:href="#2" y="2.171"/><use xlink:href="#4" y="4.342"/><use xlink:href="#6" y="6.513"/><use xlink:href="#7" y="8.684"/><use xlink:href="#8" y="10.855"/><use xlink:href="#9" y="13.026"/><use xlink:href="#10" y="15.197"/><use xlink:href="#11" y="17.368"/><use xlink:href="#12" y="19.539"/><use xlink:href="#13" y="21.71"/><use xlink:href="#14" y="23.881"/><use xlink:href="#21" y="26.052"/><use xlink:href="#22" y="28.223"/><text y="32.064" class="g">?</text><text x="2.004" y="32.064" class="h">Java</text><text x="7.014" y="32.064" class="f">[Use</text><text x="12.024" y="32.064" class="f">arrows</text><text x="19.038" y="32.064" class="f">to</text><text x="22.044" y="32.064" class="f">move],</text><text x="29.058" y="32.064" class="f">type</text><text x="34.068" y="32.064" class="f">to</text><text x="37.074" y="32.064" class="f">filter</text><text x="2.004" y="34.235" class="f">8</text><text x="2.004" y="36.406" class="f">11</text><text y="38.577" class="k">❯</text><text x="2.004" y="38.577" class="k">17</text><text x="2.004" y="40.748" class="f">18</text></svg><svg x="5120"><use xlink:href="#a"/><use xlink:href="#b" x="-.004" y="30.369"/><use xlink:href="#1"/><use xlink:href="#2" y="2.171"/><use xlink:href="#4" y="4.342"/><use xlink:href="#6" y="6.513"/><use xlink:href="#7" y="8.684"/><use xlink:href="#8" y="10.855"/><use xlink:href="#9" y="13.026"/><use xlink:href="#10" y="15.197"/><use xlink:href="#11" y="17.368"/><use xlink:href="#12" y="19.539"/><use xlink:href="#13" y="21.71"/><use xlink:href="#14" y="23.881"/><use xlink:href="#21" y="26.052"/><use xlink:href="#22" y="28.223"/></svg><svg x="5200"><use xlink:href="#a"/><use xlink:href="#b" x="-.004" y="32.54"/><use xlink:href="#1"/><use xlink:href="#2" y="2.171"/><use xlink:href="#4" y="4.342"/><use xlink:href="#6" y="6.513"/><use xlink:href="#7" y="8.684"/><use xlink:href="#8" y="10.855"/><use xlink:href="#9" y="13.026"/><use xlink:href="#10" y="15.197"/><use xlink:href="#11" y="17.368"/><use xlink:href="#12" y="19.539"/><use xlink:href="#13" y="21.71"/><use xlink:href="#14" y="23.881"/><use xlink:href="#21" y="26.052"/><use xlink:href="#22" y="28.223"/><use xlink:href="#23" y="30.394"/></svg><svg x="5280"><use xlink:href="#a"/><use xlink:href="#b" x="-.004" y="34.711"/><use xlink:href="#1"/><use xlink:href="#2" y="2.171"/><use xlink:href="#4" y="4.342"/><use xlink:href="#6" y="6.513"/><use xlink:href="#7" y="8.684"/><use xlink:href="#8" y="10.855"/><use xlink:href="#9" y="13.026"/><use xlink:href="#10" y="15.197"/><use xlink:href="#11" y="17.368"/><use xlink:href="#12" y="19.539"/><use xlink:href="#13" y="21.71"/><use xlink:href="#14" y="23.881"/><use xlink:href="#21" y="26.052"/><use xlink:href="#22" y="28.223"/><use xlink:href="#23" y="30.394"/><use xlink:href="#24" y="32.565"/></svg><svg x="5360"><use xlink:href="#a"/><use xlink:href="#b" x="7.996" y="36.882"/><use xlink:href="#1"/><use xlink:href="#2" y="2.171"/><use xlink:href="#4" y="4.342"/><use xlink:href="#6" y="6.513"/><use xlink:href="#7" y="8.684"/><use xlink:href="#8" y="10.855"/><use xlink:href="#9" y="13.026"/><use xlink:href="#10" y="15.197"/><use xlink:href="#11" y="17.368"/><use xlink:href="#12" y="19.539"/><use xlink:href="#13" y="21.71"/><use xlink:href="#14" y="23.881"/><use xlink:href="#21" y="26.052"/><use xlink:href="#22" y="28.223"/><use xlink:href="#23" y="30.394"/><use xlink:href="#24" y="32.565"/><use xlink:href="#1" y="34.736"/><use xlink:href="#25" y="36.907"/></svg><svg x="5440"><use xlink:href="#a"/><use xlink:href="#b" x="7.996" y="39.053"/><use xlink:href="#1"/><use xlink:href="#2" y="2.171"/><use xlink:href="#4" y="4.342"/><use xlink:href="#6" y="6.513"/><use xlink:href="#7" y="8.684"/><use xlink:href="#8" y="10.855"/><use xlink:href="#9" y="13.026"/><use xlink:href="#10" y="15.197"/><use xlink:href="#11" y="17.368"/><use xlink:href="#12" y="19.539"/><use xlink:href="#13" y="21.71"/><use xlink:href="#14" y="23.881"/><use xlink:href="#21" y="26.052"/><use xlink:href="#22" y="28.223"/><use xlink:href="#23" y="30.394"/><use xlink:href="#24" y="32.565"/><use xlink:href="#1" y="34.736"/><text y="38.577" class="e">14:10</text><text x="6.012" y="38.577" class="f">$</text><text x="8.016" y="38.577" class="c">✔</text><text x="10.02" y="38.577" class="d">/tmp/springcli</text><use xlink:href="#25" y="39.078"/></svg></svg></g></g></svg></svg>